{
    "accessors" : [
        {
            "bufferView" : 0, 
            "componentType" : 5121, 
            "count" : 372, 
            "max" : [
                191
            ], 
            "min" : [
                0
            ], 
            "type" : "SCALAR"
        }, 
        {
            "bufferView" : 1, 
            "componentType" : 5126, 
            "count" : 192, 
            "max" : [
                1.0, 
                1.0, 
                1.0
            ], 
            "min" : [
                -1.0, 
                -1.0, 
                -1.0
            ], 
            "type" : "VEC3"
        }, 
        {
            "bufferView" : 2, 
            "componentType" : 5126, 
            "count" : 192, 
            "max" : [
                0.9951847195625305, 
                1.0, 
                0.9951847195625305
            ], 
            "min" : [
                -0.9951847791671753, 
                -1.0, 
                -0.9951847791671753
            ], 
            "type" : "VEC3"
        }, 
        {
            "bufferView" : 3, 
            "componentType" : 5121, 
            "count" : 12, 
            "max" : [
                7
            ], 
            "min" : [
                0
            ], 
            "type" : "SCALAR"
        }, 
        {
            "bufferView" : 4, 
            "componentType" : 5126, 
            "count" : 8, 
            "max" : [
                1.676266074180603, 
                1.0871293544769287, 
                0.9735187292098999
            ], 
            "min" : [
                -1.5489513874053955, 
                -1.1548469066619873, 
                -1.0
            ], 
            "type" : "VEC3"
        }, 
        {
            "bufferView" : 5, 
            "componentType" : 5126, 
            "count" : 8, 
            "max" : [
                0.1966705173254013, 
                0.8090243935585022, 
                0.5538955926895142
            ], 
            "min" : [
                -0.042633306235075, 
                0.24954649806022644, 
                -0.9674238562583923
            ], 
            "type" : "VEC3"
        }, 
        {
            "bufferView" : 6, 
            "componentType" : 5123, 
            "count" : 39366, 
            "max" : [
                7584
            ], 
            "min" : [
                0
            ], 
            "type" : "SCALAR"
        }, 
        {
            "bufferView" : 7, 
            "componentType" : 5126, 
            "count" : 7585, 
            "max" : [
                1.0, 
                0.0, 
                1.0
            ], 
            "min" : [
                -1.0, 
                0.0, 
                -1.0
            ], 
            "type" : "VEC3"
        }, 
        {
            "bufferView" : 8, 
            "componentType" : 5126, 
            "count" : 7585, 
            "max" : [
                0.0, 
                1.0, 
                -0.0
            ], 
            "min" : [
                0.0, 
                0.9999999403953552, 
                -0.0
            ], 
            "type" : "VEC3"
        }, 
        {
            "bufferView" : 9, 
            "componentType" : 5123, 
            "count" : 7585, 
            "max" : [
                0, 
                0, 
                0, 
                0
            ], 
            "min" : [
                0, 
                0, 
                0, 
                0
            ], 
            "type" : "VEC4"
        }, 
        {
            "bufferView" : 10, 
            "componentType" : 5126, 
            "count" : 7585, 
            "max" : [
                0.0, 
                0.0, 
                0.0, 
                0.0
            ], 
            "min" : [
                0.0, 
                0.0, 
                0.0, 
                0.0
            ], 
            "type" : "VEC4"
        }, 
        {
            "bufferView" : 11, 
            "componentType" : 5121, 
            "count" : 12, 
            "max" : [
                7
            ], 
            "min" : [
                0
            ], 
            "type" : "SCALAR"
        }, 
        {
            "bufferView" : 12, 
            "componentType" : 5126, 
            "count" : 8, 
            "max" : [
                1.676266074180603, 
                1.0871293544769287, 
                0.9735187292098999
            ], 
            "min" : [
                -1.5489513874053955, 
                -1.1548469066619873, 
                -1.0
            ], 
            "type" : "VEC3"
        }, 
        {
            "bufferView" : 13, 
            "componentType" : 5126, 
            "count" : 8, 
            "max" : [
                0.1966705173254013, 
                0.8090243935585022, 
                0.5538955926895142
            ], 
            "min" : [
                -0.042633306235075, 
                0.24954649806022644, 
                -0.9674238562583923
            ], 
            "type" : "VEC3"
        }
    ], 
    "asset" : {
        "generator" : "Khronos Blender glTF 2.0 exporter", 
        "version" : "2.0"
    }, 
    "bufferViews" : [
        {
            "buffer" : 0, 
            "byteLength" : 372, 
            "byteOffset" : 0, 
            "target" : 34963
        }, 
        {
            "buffer" : 0, 
            "byteLength" : 2304, 
            "byteOffset" : 372, 
            "target" : 34962
        }, 
        {
            "buffer" : 0, 
            "byteLength" : 2304, 
            "byteOffset" : 2676, 
            "target" : 34962
        }, 
        {
            "buffer" : 0, 
            "byteLength" : 12, 
            "byteOffset" : 4980, 
            "target" : 34963
        }, 
        {
            "buffer" : 0, 
            "byteLength" : 96, 
            "byteOffset" : 4992, 
            "target" : 34962
        }, 
        {
            "buffer" : 0, 
            "byteLength" : 96, 
            "byteOffset" : 5088, 
            "target" : 34962
        }, 
        {
            "buffer" : 0, 
            "byteLength" : 78732, 
            "byteOffset" : 5184, 
            "target" : 34963
        }, 
        {
            "buffer" : 0, 
            "byteLength" : 91020, 
            "byteOffset" : 83916, 
            "target" : 34962
        }, 
        {
            "buffer" : 0, 
            "byteLength" : 91020, 
            "byteOffset" : 174936, 
            "target" : 34962
        }, 
        {
            "buffer" : 0, 
            "byteLength" : 60680, 
            "byteOffset" : 265956, 
            "target" : 34962
        }, 
        {
            "buffer" : 0, 
            "byteLength" : 121360, 
            "byteOffset" : 326636, 
            "target" : 34962
        }, 
        {
            "buffer" : 0, 
            "byteLength" : 12, 
            "byteOffset" : 447996, 
            "target" : 34963
        }, 
        {
            "buffer" : 0, 
            "byteLength" : 96, 
            "byteOffset" : 448008, 
            "target" : 34962
        }, 
        {
            "buffer" : 0, 
            "byteLength" : 96, 
            "byteOffset" : 448104, 
            "target" : 34962
        }
    ], 
    "buffers" : [
        {
            "byteLength" : 448200, 
            "uri" : "losnevados.bin"
        }
    ], 
    "images" : [
        {
            "name" : "texturas-9", 
            "uri" : "texturas-9.jpg"
        }, 
        {
            "name" : "texturas-9.jpg", 
            "uri" : "texturas-9.jpg.jpg"
        }
    ], 
    "materials" : [
        {
            "name" : "Material.001", 
            "pbrMetallicRoughness" : {
                "baseColorFactor" : [
                    0.6400000190734865, 
                    0.6400000190734865, 
                    0.6400000190734865, 
                    1.0
                ], 
                "metallicFactor" : 0.0
            }
        }, 
        {
            "name" : "Material.002", 
            "pbrMetallicRoughness" : {
                "baseColorFactor" : [
                    0.6400000190734865, 
                    0.6400000190734865, 
                    0.6400000190734865, 
                    1.0
                ], 
                "baseColorTexture" : {
                    "index" : 0
                }, 
                "metallicFactor" : 0.0
            }
        }, 
        {
            "name" : "Material.003", 
            "pbrMetallicRoughness" : {
                "baseColorFactor" : [
                    0.6400000190734865, 
                    0.6400000190734865, 
                    0.6400000190734865, 
                    1.0
                ], 
                "baseColorTexture" : {
                    "index" : 0
                }, 
                "metallicFactor" : 0.0
            }
        }, 
        {
            "name" : "Material.004", 
            "pbrMetallicRoughness" : {
                "baseColorFactor" : [
                    0.6400000190734865, 
                    0.6400000190734865, 
                    0.6400000190734865, 
                    1.0
                ], 
                "baseColorTexture" : {
                    "index" : 2
                }, 
                "metallicFactor" : 0.0
            }
        }
    ], 
    "meshes" : [
        {
            "name" : "Cylinder", 
            "primitives" : [
                {
                    "attributes" : {
                        "NORMAL" : 2, 
                        "POSITION" : 1
                    }, 
                    "indices" : 0, 
                    "material" : 1
                }
            ]
        }, 
        {
            "name" : "Plane.001", 
            "primitives" : [
                {
                    "attributes" : {
                        "NORMAL" : 5, 
                        "POSITION" : 4
                    }, 
                    "indices" : 3, 
                    "material" : 2
                }
            ]
        }, 
        {
            "name" : "Plane", 
            "primitives" : [
                {
                    "attributes" : {
                        "JOINTS_0" : 9, 
                        "NORMAL" : 8, 
                        "POSITION" : 7, 
                        "WEIGHTS_0" : 10
                    }, 
                    "indices" : 6, 
                    "material" : 0
                }
            ]
        }, 
        {
            "name" : "Plane.003", 
            "primitives" : [
                {
                    "attributes" : {
                        "NORMAL" : 13, 
                        "POSITION" : 12
                    }, 
                    "indices" : 11, 
                    "material" : 3
                }
            ]
        }
    ], 
    "nodes" : [
        {
            "name" : "Camera", 
            "rotation" : [
                0.483536034822464, 
                0.33687159419059753, 
                -0.20870360732078552, 
                0.7804827094078064
            ], 
            "translation" : [
                7.481131553649902, 
                5.34366512298584, 
                6.5076398849487305
            ]
        }, 
        {
            "mesh" : 0, 
            "name" : "Cylinder", 
            "scale" : [
                -1.569750428199768, 
                -0.11308649927377701, 
                -1.2199300527572632
            ], 
            "translation" : [
                1.9445173740386963, 
                1.1927647590637207, 
                0.017808333039283752
            ]
        }, 
        {
            "name" : "Lamp", 
            "rotation" : [
                0.16907575726509094, 
                0.7558802962303162, 
                -0.27217137813568115, 
                0.570947527885437
            ], 
            "scale" : [
                1.0, 
                1.0, 
                0.9999999403953552
            ], 
            "translation" : [
                4.076245307922363, 
                5.903861999511719, 
                -1.0054539442062378
            ]
        }, 
        {
            "mesh" : 2, 
            "name" : "Plane", 
            "scale" : [
                -6.17824649810791, 
                -6.17824649810791, 
                -6.17824649810791
            ], 
            "translation" : [
                -0.10632318258285522, 
                2.358774423599243, 
                0.09444636106491089
            ]
        }, 
        {
            "mesh" : 1, 
            "name" : "Plane.001", 
            "rotation" : [
                -0.06533053517341614, 
                0.3406613767147064, 
                -0.0532294400036335, 
                0.9364018440246582
            ], 
            "scale" : [
                -0.4874882698059082, 
                -0.4874882996082306, 
                -2.531038522720337
            ], 
            "translation" : [
                -0.3658444285392761, 
                1.1921876668930054, 
                -2.8054280281066895
            ]
        }, 
        {
            "mesh" : 3, 
            "name" : "Plane.002", 
            "rotation" : [
                -0.15445564687252045, 
                -0.9251082539558411, 
                0.028005188331007957, 
                0.3457368016242981
            ], 
            "scale" : [
                -0.46280598640441895, 
                -0.2381206601858139, 
                -2.135777711868286
            ], 
            "translation" : [
                3.6363437175750732, 
                0.8594487905502319, 
                2.690406322479248
            ]
        }
    ], 
    "samplers" : [
        {}
    ], 
    "scene" : 0, 
    "scenes" : [
        {
            "name" : "Scene", 
            "nodes" : [
                4, 
                1, 
                3, 
                2, 
                0, 
                5
            ]
        }
    ], 
    "textures" : [
        {
            "sampler" : 0, 
            "source" : 0
        }, 
        {
            "sampler" : 0, 
            "source" : 0
        }, 
        {
            "sampler" : 0, 
            "source" : 1
        }
    ]
}
