{
    "accessors": [
        {
            "bufferView": 8,
            "byteOffset": 0,
            "componentType": 5123,
            "count": 12,
            "max": [
                7
            ],
            "min": [
                0
            ],
            "name": "accessor_buffer_Plane.003_0",
            "type": "SCALAR"
        },
        {
            "bufferView": 10,
            "byteOffset": 0,
            "componentType": 5126,
            "count": 104972,
            "max": [
                0.9790601134300232,
                1.0,
                0.959416389465332
            ],
            "min": [
                -0.9887780547142029,
                0.14394930005073547,
                -0.9701986312866211
            ],
            "name": "accessor_buffer_Plane.002_NORMAL_0",
            "type": "VEC3"
        },
        {
            "bufferView": 5,
            "byteOffset": 0,
            "componentType": 5123,
            "count": 12,
            "max": [
                7
            ],
            "min": [
                0
            ],
            "name": "accessor_buffer_Plane.001_0",
            "type": "SCALAR"
        },
        {
            "bufferView": 11,
            "byteOffset": 0,
            "componentType": 5125,
            "count": 157464,
            "max": [
                104971
            ],
            "min": [
                0
            ],
            "name": "accessor_buffer_Plane.002_0",
            "type": "SCALAR"
        },
        {
            "bufferView": 4,
            "byteOffset": 0,
            "componentType": 5126,
            "count": 8,
            "max": [
                0.042633283883333206,
                0.8090243935585022,
                0.9674238562583923
            ],
            "min": [
                -0.19667048752307892,
                0.24954649806022644,
                -0.5538955330848694
            ],
            "name": "accessor_buffer_Plane.001_NORMAL_0",
            "type": "VEC3"
        },
        {
            "bufferView": 7,
            "byteOffset": 0,
            "componentType": 5126,
            "count": 8,
            "max": [
                0.042633283883333206,
                0.8090243935585022,
                0.9674238562583923
            ],
            "min": [
                -0.19667048752307892,
                0.24954649806022644,
                -0.5538955330848694
            ],
            "name": "accessor_buffer_Plane.003_NORMAL_0",
            "type": "VEC3"
        },
        {
            "bufferView": 6,
            "byteOffset": 0,
            "componentType": 5126,
            "count": 8,
            "max": [
                1.5489513874053955,
                1.0871293544769287,
                1.0
            ],
            "min": [
                -1.676266074180603,
                -1.1548469066619873,
                -0.9735187292098999
            ],
            "name": "accessor_buffer_Plane.003_POSITION_0",
            "type": "VEC3"
        },
        {
            "bufferView": 1,
            "byteOffset": 0,
            "componentType": 5126,
            "count": 192,
            "max": [
                0.9951847791671753,
                0.9999999403953552,
                0.9951847791671753
            ],
            "min": [
                -0.9951847195625305,
                -1.0,
                -0.9951847195625305
            ],
            "name": "accessor_buffer_Cylinder_NORMAL_0",
            "type": "VEC3"
        },
        {
            "bufferView": 0,
            "byteOffset": 0,
            "componentType": 5126,
            "count": 192,
            "max": [
                1.0,
                1.0,
                1.0
            ],
            "min": [
                -1.0,
                -1.0,
                -1.0
            ],
            "name": "accessor_buffer_Cylinder_POSITION_0",
            "type": "VEC3"
        },
        {
            "bufferView": 2,
            "byteOffset": 0,
            "componentType": 5123,
            "count": 372,
            "max": [
                191
            ],
            "min": [
                0
            ],
            "name": "accessor_buffer_Cylinder_0",
            "type": "SCALAR"
        },
        {
            "bufferView": 3,
            "byteOffset": 0,
            "componentType": 5126,
            "count": 8,
            "max": [
                1.5489513874053955,
                1.0871293544769287,
                1.0
            ],
            "min": [
                -1.676266074180603,
                -1.1548469066619873,
                -0.9735187292098999
            ],
            "name": "accessor_buffer_Plane.001_POSITION_0",
            "type": "VEC3"
        },
        {
            "bufferView": 9,
            "byteOffset": 0,
            "componentType": 5126,
            "count": 104972,
            "max": [
                1.0,
                0.3697637617588043,
                1.0
            ],
            "min": [
                -1.0,
                -0.07198870927095413,
                -1.0
            ],
            "name": "accessor_buffer_Plane.002_POSITION_0",
            "type": "VEC3"
        }
    ],
    "asset": {
        "copyright": "",
        "generator": "blendergltf v1.2.0",
        "version": "2.0"
    },
    "bufferViews": [
        {
            "buffer": 0,
            "byteLength": 2304,
            "byteOffset": 0,
            "byteStride": 12,
            "name": "bufferView_buffer_Cylinder_POSITION_0",
            "target": 34962
        },
        {
            "buffer": 0,
            "byteLength": 2304,
            "byteOffset": 2304,
            "byteStride": 12,
            "name": "bufferView_buffer_Cylinder_NORMAL_0",
            "target": 34962
        },
        {
            "buffer": 0,
            "byteLength": 748,
            "byteOffset": 4608,
            "name": "bufferView_buffer_Cylinder_0",
            "target": 34963
        },
        {
            "buffer": 0,
            "byteLength": 96,
            "byteOffset": 5356,
            "byteStride": 12,
            "name": "bufferView_buffer_Plane.001_POSITION_0",
            "target": 34962
        },
        {
            "buffer": 0,
            "byteLength": 96,
            "byteOffset": 5452,
            "byteStride": 12,
            "name": "bufferView_buffer_Plane.001_NORMAL_0",
            "target": 34962
        },
        {
            "buffer": 0,
            "byteLength": 28,
            "byteOffset": 5548,
            "name": "bufferView_buffer_Plane.001_0",
            "target": 34963
        },
        {
            "buffer": 0,
            "byteLength": 96,
            "byteOffset": 5576,
            "byteStride": 12,
            "name": "bufferView_buffer_Plane.003_POSITION_0",
            "target": 34962
        },
        {
            "buffer": 0,
            "byteLength": 96,
            "byteOffset": 5672,
            "byteStride": 12,
            "name": "bufferView_buffer_Plane.003_NORMAL_0",
            "target": 34962
        },
        {
            "buffer": 0,
            "byteLength": 28,
            "byteOffset": 5768,
            "name": "bufferView_buffer_Plane.003_0",
            "target": 34963
        },
        {
            "buffer": 0,
            "byteLength": 1259664,
            "byteOffset": 5796,
            "byteStride": 12,
            "name": "bufferView_buffer_Plane.002_POSITION_0",
            "target": 34962
        },
        {
            "buffer": 0,
            "byteLength": 1259664,
            "byteOffset": 1265460,
            "byteStride": 12,
            "name": "bufferView_buffer_Plane.002_NORMAL_0",
            "target": 34962
        },
        {
            "buffer": 0,
            "byteLength": 629860,
            "byteOffset": 2525124,
            "name": "bufferView_buffer_Plane.002_0",
            "target": 34963
        }
    ],
    "buffers": [
        {
            "byteLength": 3154984,
            "name": "buffer_nevados",
            "uri": "buffer_nevados.bin"
        }
    ],
    "cameras": [
        {
            "name": "Camera",
            "perspective": {
                "aspectRatio": 1.703595982340029,
                "yfov": 0.5033799409866333,
                "zfar": 100.0,
                "znear": 0.10000000149011612
            },
            "type": "perspective"
        }
    ],
    "images": [
        {
            "name": "texturas-9.jpg",
            "uri": ""
        },
        {
            "name": "texturas-9.jpg.001",
            "uri": ""
        }
    ],
    "materials": [
        {
            "alphaMode": "OPAQUE",
            "doubleSided": false,
            "emissiveFactor": [
                0.0,
                0.0,
                0.0
            ],
            "name": "Material.001",
            "pbrMetallicRoughness": {
                "baseColorFactor": [
                    0.64000004529953,
                    0.64000004529953,
                    0.64000004529953,
                    1.0
                ],
                "metallicFactor": 0.0,
                "roughnessFactor": 1.0
            }
        },
        {
            "alphaMode": "OPAQUE",
            "doubleSided": false,
            "emissiveFactor": [
                0.0,
                0.0,
                0.0
            ],
            "name": "Material.002",
            "pbrMetallicRoughness": {
                "baseColorFactor": [
                    0.64000004529953,
                    0.64000004529953,
                    0.64000004529953,
                    1.0
                ],
                "baseColorTexture": {
                    "index": 0,
                    "texCoord": 0
                },
                "metallicFactor": 0.0,
                "roughnessFactor": 1.0
            }
        },
        {
            "alphaMode": "OPAQUE",
            "doubleSided": false,
            "emissiveFactor": [
                0.0,
                0.0,
                0.0
            ],
            "name": "Material.003",
            "pbrMetallicRoughness": {
                "baseColorFactor": [
                    0.64000004529953,
                    0.64000004529953,
                    0.64000004529953,
                    1.0
                ],
                "baseColorTexture": {
                    "index": 1,
                    "texCoord": 0
                },
                "metallicFactor": 0.0,
                "roughnessFactor": 1.0
            }
        },
        {
            "alphaMode": "OPAQUE",
            "doubleSided": false,
            "emissiveFactor": [
                0.0,
                0.0,
                0.0
            ],
            "name": "Material.004",
            "pbrMetallicRoughness": {
                "baseColorFactor": [
                    0.64000004529953,
                    0.64000004529953,
                    0.64000004529953,
                    1.0
                ],
                "baseColorTexture": {
                    "index": 2,
                    "texCoord": 0
                },
                "metallicFactor": 0.0,
                "roughnessFactor": 1.0
            }
        }
    ],
    "meshes": [
        {
            "name": "Cylinder",
            "primitives": [
                {
                    "attributes": {
                        "NORMAL": 7,
                        "POSITION": 8
                    },
                    "indices": 9,
                    "material": 1,
                    "mode": 4
                }
            ]
        },
        {
            "name": "Plane.001",
            "primitives": [
                {
                    "attributes": {
                        "NORMAL": 4,
                        "POSITION": 10
                    },
                    "indices": 2,
                    "material": 2,
                    "mode": 4
                }
            ]
        },
        {
            "name": "Plane.003",
            "primitives": [
                {
                    "attributes": {
                        "NORMAL": 5,
                        "POSITION": 6
                    },
                    "indices": 0,
                    "material": 3,
                    "mode": 4
                }
            ]
        },
        {
            "name": "Plane.002",
            "primitives": [
                {
                    "attributes": {
                        "NORMAL": 1,
                        "POSITION": 11
                    },
                    "indices": 3,
                    "material": 0,
                    "mode": 4
                }
            ]
        }
    ],
    "nodes": [
        {
            "camera": 0,
            "name": "Camera",
            "rotation": [
                -0.09062843769788742,
                -0.8937962651252747,
                -0.2099730223417282,
                0.38578000664711
            ],
            "scale": [
                1.0,
                1.0,
                1.0
            ],
            "translation": [
                -7.481131553649902,
                5.34366512298584,
                -6.5076398849487305
            ]
        },
        {
            "mesh": 0,
            "name": "Cylinder",
            "rotation": [
                0.0,
                0.0,
                0.0,
                1.0
            ],
            "scale": [
                -1.569750428199768,
                -0.11308649927377701,
                -1.2199300527572632
            ],
            "translation": [
                -1.9445173740386963,
                1.1927647590637207,
                -0.017808333039283752
            ]
        },
        {
            "name": "Lamp",
            "rotation": [
                -0.34203386306762695,
                -0.5232755541801453,
                -0.2841663062572479,
                0.7269423007965088
            ],
            "scale": [
                1.0,
                1.0,
                0.9999999403953552
            ],
            "translation": [
                -4.076245307922363,
                5.903861999511719,
                1.0054539442062378
            ]
        },
        {
            "mesh": 3,
            "name": "Plane",
            "rotation": [
                0.0,
                0.0,
                0.0,
                1.0
            ],
            "scale": [
                -6.17824649810791,
                -6.17824649810791,
                -6.17824649810791
            ],
            "translation": [
                0.10632318258285522,
                2.358774423599243,
                -0.09444636106491089
            ]
        },
        {
            "mesh": 1,
            "name": "Plane.001",
            "rotation": [
                0.01637851633131504,
                0.3406614065170288,
                0.053229447454214096,
                0.9385351538658142
            ],
            "scale": [
                -0.4874882698059082,
                -0.4874882996082306,
                -2.531038522720337
            ],
            "translation": [
                0.3658444285392761,
                1.1921876668930054,
                2.8054280281066895
            ]
        },
        {
            "mesh": 2,
            "name": "Plane.002",
            "rotation": [
                -0.13423505425453186,
                -0.9251082539558411,
                -0.028005177155137062,
                0.3540782332420349
            ],
            "scale": [
                -0.46280598640441895,
                -0.2381206601858139,
                -2.135777711868286
            ],
            "translation": [
                -3.6363437175750732,
                0.8594487905502319,
                -2.690406322479248
            ]
        }
    ],
    "scene": 0,
    "scenes": [
        {
            "extras": {
                "active_camera": 0,
                "background_color": [
                    0.05087608844041824,
                    0.05087608844041824,
                    0.05087608844041824
                ],
                "frames_per_second": 24
            },
            "name": "Scene",
            "nodes": [
                4,
                1,
                3,
                2,
                0,
                5
            ]
        }
    ],
    "textures": [
        {
            "name": "Texture.005"
        },
        {
            "name": "Texture.007"
        },
        {
            "name": "Texture.008"
        }
    ]
}
